<svg width="27" height="26" viewBox="0 0 27 26" fill="none" xmlns="http://www.w3.org/2000/svg">
<path d="M6.98231 4.19116H25.2744C25.5235 4.19189 25.7694 4.24704 25.9948 4.35274C26.2201 4.45843 26.4195 4.6121 26.5788 4.80291C26.7367 4.99172 26.8503 5.21326 26.9114 5.45138C26.9724 5.6895 26.9794 5.9382 26.9318 6.17935L25.6427 13.2909C25.5758 13.6573 25.3889 13.9911 25.1112 14.2402C24.8335 14.4893 24.4807 14.6395 24.1081 14.6674L9.46832 15.5544L9.74454 16.8085C9.77612 16.9555 9.85732 17.0874 9.9746 17.182C10.0919 17.2766 10.2382 17.3283 10.3891 17.3285H23.8473C24.019 17.3092 24.1928 17.3264 24.3574 17.3787C24.522 17.431 24.6737 17.5174 24.8025 17.6322C24.9313 17.7469 25.0344 17.8875 25.1049 18.0447C25.1755 18.2019 25.212 18.3721 25.212 18.5443C25.212 18.7165 25.1755 18.8868 25.1049 19.044C25.0344 19.2011 24.9313 19.3417 24.8025 19.4565C24.6737 19.5712 24.522 19.6576 24.3574 19.7099C24.1928 19.7623 24.019 19.7794 23.8473 19.7602H10.3584C9.64036 19.7746 8.94 19.5376 8.37921 19.0905C7.81842 18.6434 7.43271 18.0145 7.28922 17.3132L4.22008 2.95237C4.18849 2.80532 4.10729 2.6735 3.99001 2.57888C3.87273 2.48426 3.72645 2.43255 3.57556 2.43239H1.21231C0.889384 2.42836 0.581053 2.29769 0.354131 2.06867C0.127208 1.83966 -2.5228e-05 1.53075 3.75207e-09 1.20889C3.75207e-09 0.888455 0.127725 0.581144 0.355078 0.354562C0.582431 0.12798 0.890787 0.00068736 1.21231 0.00068736H3.57556C4.29142 -0.0144345 4.99006 0.220363 5.55054 0.664438C6.11103 1.10851 6.49808 1.73391 6.6447 2.43239L7.02835 4.20646L6.98231 4.19116ZM12.0004 26C11.5876 26 11.1841 25.878 10.8409 25.6495C10.4977 25.4209 10.2302 25.0961 10.0722 24.716C9.91425 24.336 9.87292 23.9177 9.95344 23.5143C10.034 23.1108 10.2327 22.7402 10.5246 22.4493C10.8165 22.1584 11.1884 21.9603 11.5932 21.8801C11.998 21.7998 12.4177 21.841 12.799 21.9984C13.1804 22.1559 13.5063 22.4225 13.7357 22.7645C13.965 23.1065 14.0874 23.5087 14.0874 23.9201C14.0874 24.4717 13.8675 25.0007 13.4761 25.3908C13.0847 25.7809 12.5539 26 12.0004 26ZM21.7449 26C21.3321 26 20.9286 25.878 20.5854 25.6495C20.2422 25.4209 19.9747 25.0961 19.8167 24.716C19.6588 24.336 19.6175 23.9177 19.698 23.5143C19.7785 23.1108 19.9773 22.7402 20.2692 22.4493C20.561 22.1584 20.9329 21.9603 21.3377 21.8801C21.7426 21.7998 22.1622 21.841 22.5436 21.9984C22.9249 22.1559 23.2509 22.4225 23.4802 22.7645C23.7095 23.1065 23.8319 23.5087 23.8319 23.9201C23.8319 24.4717 23.612 25.0007 23.2206 25.3908C22.8293 25.7809 22.2984 26 21.7449 26Z" fill="black"/>
</svg>