<svg width="24" height="28" viewBox="0 0 24 28" fill="none" xmlns="http://www.w3.org/2000/svg">
<path d="M11.5239 20.6344V26.4122H7.34609C6.99054 26.4122 6.63498 26.6788 6.63498 27.1233C6.63498 27.4788 6.90165 27.8344 7.34609 27.8344H17.035C17.3905 27.8344 17.7461 27.5677 17.7461 27.1233C17.7461 26.7677 17.4794 26.4122 17.035 26.4122H12.8572V20.6344L18.635 12.6344H5.74609L11.5239 20.6344Z" fill="white"/>
<path d="M1.56928 5.0788C1.30261 5.0788 1.12484 5.25657 0.947059 5.43435C0.85817 5.70102 0.85817 5.96769 1.03595 6.14546L4.76928 11.301H9.03595L6.63595 5.0788H1.56928Z" fill="white"/>
<path d="M23.5253 5.43435C23.3475 5.25657 23.1697 5.0788 22.903 5.0788H8.05859L10.5475 11.301H19.703L23.4364 6.14546C23.6141 5.96769 23.6142 5.70102 23.5253 5.43435Z" fill="white"/>
<path d="M6.72665 1.61215C6.63776 1.43437 6.45998 1.25659 6.19331 1.25659L1.74887 0.278816C1.39331 0.101038 1.03776 0.367705 0.948869 0.72326C0.85998 1.07882 1.12665 1.43437 1.4822 1.52326L5.57109 2.50104L6.63776 5.1677H8.05998L6.72665 1.61215Z" fill="white"/>
</svg>
