<svg width="31" height="23" viewBox="0 0 31 23" fill="none" xmlns="http://www.w3.org/2000/svg">
<path d="M21.8324 11.1623C22.3649 11.1678 22.9647 11.214 23.6368 11.3175L23.7356 11.3327L23.7508 11.2338L23.862 10.511L23.8772 10.4121L23.7784 10.3969C21.3052 10.0164 19.6609 10.3421 18.6225 10.7806C17.5843 11.219 17.1582 11.7676 17.1169 11.8233L17.0577 11.9033L17.1374 11.9629L17.723 12.401L17.8021 12.4602L17.8622 12.3817C17.8621 12.3819 17.8621 12.3818 17.8624 12.3815C17.8698 12.3724 18.0399 12.1629 18.433 11.9211C18.6514 12.6525 19.3152 13.1888 20.102 13.1888L21.8324 11.1623ZM21.8324 11.1623C21.8424 11.2393 21.8476 11.3178 21.8476 11.3976C21.8476 12.3828 21.0672 13.1889 20.102 13.1888L21.8324 11.1623ZM20.102 12.2575C19.6964 12.2575 19.353 11.94 19.2962 11.5202C19.6985 11.3819 20.2255 11.2564 20.8936 11.1974C20.9083 11.2616 20.9162 11.3286 20.9162 11.3976C20.9162 11.8763 20.5464 12.2575 20.102 12.2575Z" fill="white" stroke="white" stroke-width="0.2"/>
<path d="M6.4262 10.397L6.32736 10.4122L6.34257 10.511L6.45377 11.2339L6.46898 11.3327L6.56782 11.3175C7.23991 11.2141 7.83968 11.1679 8.37223 11.1623C8.36223 11.2393 8.357 11.3178 8.357 11.3977C8.357 12.3828 9.13743 13.1889 10.1025 13.1889C10.8895 13.1889 11.5532 12.6526 11.7715 11.9211C12.1646 12.1629 12.3348 12.3725 12.3422 12.3816C12.3425 12.3819 12.3425 12.382 12.3424 12.3818L12.4025 12.4603L12.4817 12.4011L13.0672 11.963L13.1469 11.9034L13.0877 11.8234C13.0464 11.7676 12.6203 11.2191 11.5821 10.7807C10.5437 10.3421 8.89942 10.0165 6.4262 10.397ZM10.1025 12.2575C9.65822 12.2575 9.28835 11.8764 9.28835 11.3976C9.28835 11.3286 9.29625 11.2616 9.311 11.1974C9.97905 11.2564 10.5061 11.3819 10.9084 11.5202C10.8516 11.9399 10.5082 12.2575 10.1025 12.2575Z" fill="white" stroke="white" stroke-width="0.2"/>
<mask id="path-3-outside-1" maskUnits="userSpaceOnUse" x="-0.375" y="-0.444443" width="31" height="23" fill="black">
<rect fill="white" x="-0.375" y="-0.444443" width="31" height="23"/>
<path d="M29.7252 1.4406L29.5897 0.555557L29.0668 1.28241C28.0416 2.7077 26.8569 3.73166 25.5457 4.32588C24.4944 4.80228 23.6369 4.87344 23.2193 4.87344C23.0839 4.87344 22.9993 4.86572 22.9789 4.86364C22.4927 4.78202 22.0084 4.74063 21.5391 4.74063C19.237 4.74063 17.5711 5.73449 16.5789 6.56823C15.9703 7.07974 15.5371 7.59015 15.2719 7.94309C15.0068 7.59015 14.5737 7.07974 13.965 6.56823C12.9729 5.73449 11.3071 4.74063 9.00484 4.74063C8.53568 4.74063 8.05141 4.78199 7.56536 4.8636C7.54313 4.86587 7.45888 4.87348 7.32467 4.87348C6.90715 4.87348 6.04968 4.80235 4.99833 4.32595C3.68709 3.73173 2.50238 2.70777 1.47718 1.28248L0.954372 0.55563L0.818853 1.44067C0.805652 1.52697 0.497461 3.58473 0.685784 6.25598C0.796729 7.8293 1.0587 9.28633 1.46449 10.5866C1.97607 12.2259 2.71926 13.6206 3.67338 14.7319C5.54929 16.9169 8.23663 18.0247 11.6607 18.0247C11.6682 18.0247 11.6756 18.0247 11.683 18.0247C12.0708 18.1768 14.4564 19.2156 14.9115 21.8889L15.2718 21.8584L15.6324 21.8889C15.8375 20.6844 16.4465 19.6673 17.4424 18.8658C18.0798 18.3529 18.6828 18.0947 18.8611 18.0247C18.8685 18.0247 18.8759 18.0247 18.8832 18.0247C22.3074 18.0246 24.9947 16.9167 26.8707 14.7317C27.8248 13.6203 28.5679 12.2257 29.0795 10.5863C29.4852 9.28614 29.7473 7.82915 29.8582 6.25584C30.0465 3.58458 29.7384 1.52686 29.7252 1.4406ZM15.7474 12.1772C16.1755 11.4753 17.7718 9.5581 22.4287 9.5581C22.7998 9.5581 23.1876 9.57053 23.5812 9.59503C23.6097 9.59752 23.7041 9.60483 23.8469 9.60483C24.3192 9.60483 25.2726 9.52668 26.1565 8.98198C25.9419 9.51319 25.6458 10.1434 25.2553 10.769C23.9863 12.8018 22.3647 13.8324 20.4356 13.8324C19.0297 13.8324 17.4537 13.2758 15.7474 12.1772ZM17.4 13.8882C16.8664 14.1932 16.1717 14.6908 15.6376 15.4253V12.9718C16.2388 13.3413 16.8268 13.6469 17.4 13.8882ZM10.1084 13.8324C8.17926 13.8324 6.55767 12.8017 5.28867 10.769C4.89817 10.1435 4.60212 9.51319 4.38743 8.98198C5.27138 9.52676 6.2248 9.6049 6.69707 9.60483C6.83986 9.60483 6.93413 9.59755 6.96273 9.59503C7.35634 9.57053 7.7441 9.5581 8.11526 9.5581C11.0713 9.5581 12.7696 10.3451 13.6738 11.0052C14.2888 11.4542 14.6288 11.9068 14.7952 12.1779C13.0893 13.2761 11.5138 13.8324 10.1084 13.8324ZM14.9063 12.9719V15.4254C14.3722 14.6909 13.6775 14.1932 13.1439 13.8883C13.7172 13.6469 14.3051 13.3413 14.9063 12.9719ZM13.5374 18.2779C12.6838 17.5971 11.9 17.3241 11.867 17.3128L11.8084 17.2927C11.8084 17.2927 11.6894 17.2933 11.6607 17.2933C8.46061 17.2933 5.96049 16.2718 4.22994 14.2573C2.21043 11.9065 1.58534 8.58994 1.41655 6.22165C1.30465 4.65159 1.373 3.2783 1.44503 2.43447C2.41308 3.59307 3.50385 4.4516 4.69646 4.99203C5.87302 5.52518 6.84813 5.60479 7.32467 5.60475C7.52949 5.60475 7.64943 5.5902 7.66245 5.58855L7.67711 5.5864C8.12641 5.51045 8.57312 5.47194 9.00484 5.47194C10.6669 5.47194 12.1704 6.02327 13.4736 7.11064C14.2809 7.78425 14.7587 8.46762 14.9063 8.69488V11.1249C14.7094 10.9113 14.4637 10.6821 14.1589 10.4543C12.7136 9.37434 10.6802 8.82675 8.11526 8.82675C7.72725 8.82675 7.32233 8.83973 6.91175 8.8654L6.89914 8.86639C6.89837 8.86646 6.82323 8.87344 6.69703 8.87344C6.12541 8.87344 4.70608 8.73888 3.87461 7.49167L2.74142 5.79187L3.21464 7.7792C3.23102 7.84798 3.62741 9.482 4.65778 11.1393C6.05052 13.3796 7.93532 14.5637 10.1083 14.5637C10.1084 14.5637 10.1084 14.5637 10.1084 14.5637C10.7751 14.5637 11.4718 14.4531 12.1947 14.2333C12.6569 14.4271 14.4962 15.3061 14.9062 17.1544V19.8177C14.5559 19.2422 14.0965 18.7237 13.5374 18.2779ZM29.1286 6.20431C28.9614 8.57728 28.3375 11.9002 26.3157 14.2552C24.5851 16.271 22.0844 17.2932 18.8832 17.2933C18.8544 17.2932 18.7355 17.2927 18.7355 17.2927L18.6769 17.3128C18.644 17.3241 17.8601 17.5971 17.0065 18.2779C16.4473 18.7237 15.9879 19.2423 15.6376 19.8178V17.1547C16.0476 15.3061 17.887 14.4272 18.3492 14.2333C19.0721 14.4531 19.7688 14.5638 20.4356 14.5638C22.6086 14.5638 24.4933 13.3797 25.8861 11.1394C26.9165 9.48204 27.3129 7.84798 27.3293 7.7792L27.8025 5.7919L26.6693 7.49167C25.8379 8.7388 24.4186 8.87344 23.8469 8.87344C23.7209 8.87344 23.6457 8.86653 23.6457 8.86653L23.6321 8.8654C23.2216 8.83976 22.8167 8.82675 22.4287 8.82675C19.8637 8.82675 17.8304 9.37434 16.3851 10.4543C16.0802 10.6821 15.8345 10.9113 15.6376 11.1249V8.69485C15.9639 8.19281 17.9017 5.47194 21.5391 5.47194C21.9708 5.47194 22.4175 5.51045 22.8669 5.5864L22.8815 5.58855C22.8945 5.5902 23.0145 5.60475 23.2193 5.60475C23.6958 5.60475 24.6709 5.52515 25.8475 4.99203C27.0402 4.45156 28.131 3.59292 29.0991 2.43421C29.171 3.27398 29.239 4.63904 29.1286 6.20431Z"/>
</mask>
<path d="M29.7252 1.4406L29.5897 0.555557L29.0668 1.28241C28.0416 2.7077 26.8569 3.73166 25.5457 4.32588C24.4944 4.80228 23.6369 4.87344 23.2193 4.87344C23.0839 4.87344 22.9993 4.86572 22.9789 4.86364C22.4927 4.78202 22.0084 4.74063 21.5391 4.74063C19.237 4.74063 17.5711 5.73449 16.5789 6.56823C15.9703 7.07974 15.5371 7.59015 15.2719 7.94309C15.0068 7.59015 14.5737 7.07974 13.965 6.56823C12.9729 5.73449 11.3071 4.74063 9.00484 4.74063C8.53568 4.74063 8.05141 4.78199 7.56536 4.8636C7.54313 4.86587 7.45888 4.87348 7.32467 4.87348C6.90715 4.87348 6.04968 4.80235 4.99833 4.32595C3.68709 3.73173 2.50238 2.70777 1.47718 1.28248L0.954372 0.55563L0.818853 1.44067C0.805652 1.52697 0.497461 3.58473 0.685784 6.25598C0.796729 7.8293 1.0587 9.28633 1.46449 10.5866C1.97607 12.2259 2.71926 13.6206 3.67338 14.7319C5.54929 16.9169 8.23663 18.0247 11.6607 18.0247C11.6682 18.0247 11.6756 18.0247 11.683 18.0247C12.0708 18.1768 14.4564 19.2156 14.9115 21.8889L15.2718 21.8584L15.6324 21.8889C15.8375 20.6844 16.4465 19.6673 17.4424 18.8658C18.0798 18.3529 18.6828 18.0947 18.8611 18.0247C18.8685 18.0247 18.8759 18.0247 18.8832 18.0247C22.3074 18.0246 24.9947 16.9167 26.8707 14.7317C27.8248 13.6203 28.5679 12.2257 29.0795 10.5863C29.4852 9.28614 29.7473 7.82915 29.8582 6.25584C30.0465 3.58458 29.7384 1.52686 29.7252 1.4406ZM15.7474 12.1772C16.1755 11.4753 17.7718 9.5581 22.4287 9.5581C22.7998 9.5581 23.1876 9.57053 23.5812 9.59503C23.6097 9.59752 23.7041 9.60483 23.8469 9.60483C24.3192 9.60483 25.2726 9.52668 26.1565 8.98198C25.9419 9.51319 25.6458 10.1434 25.2553 10.769C23.9863 12.8018 22.3647 13.8324 20.4356 13.8324C19.0297 13.8324 17.4537 13.2758 15.7474 12.1772ZM17.4 13.8882C16.8664 14.1932 16.1717 14.6908 15.6376 15.4253V12.9718C16.2388 13.3413 16.8268 13.6469 17.4 13.8882ZM10.1084 13.8324C8.17926 13.8324 6.55767 12.8017 5.28867 10.769C4.89817 10.1435 4.60212 9.51319 4.38743 8.98198C5.27138 9.52676 6.2248 9.6049 6.69707 9.60483C6.83986 9.60483 6.93413 9.59755 6.96273 9.59503C7.35634 9.57053 7.7441 9.5581 8.11526 9.5581C11.0713 9.5581 12.7696 10.3451 13.6738 11.0052C14.2888 11.4542 14.6288 11.9068 14.7952 12.1779C13.0893 13.2761 11.5138 13.8324 10.1084 13.8324ZM14.9063 12.9719V15.4254C14.3722 14.6909 13.6775 14.1932 13.1439 13.8883C13.7172 13.6469 14.3051 13.3413 14.9063 12.9719ZM13.5374 18.2779C12.6838 17.5971 11.9 17.3241 11.867 17.3128L11.8084 17.2927C11.8084 17.2927 11.6894 17.2933 11.6607 17.2933C8.46061 17.2933 5.96049 16.2718 4.22994 14.2573C2.21043 11.9065 1.58534 8.58994 1.41655 6.22165C1.30465 4.65159 1.373 3.2783 1.44503 2.43447C2.41308 3.59307 3.50385 4.4516 4.69646 4.99203C5.87302 5.52518 6.84813 5.60479 7.32467 5.60475C7.52949 5.60475 7.64943 5.5902 7.66245 5.58855L7.67711 5.5864C8.12641 5.51045 8.57312 5.47194 9.00484 5.47194C10.6669 5.47194 12.1704 6.02327 13.4736 7.11064C14.2809 7.78425 14.7587 8.46762 14.9063 8.69488V11.1249C14.7094 10.9113 14.4637 10.6821 14.1589 10.4543C12.7136 9.37434 10.6802 8.82675 8.11526 8.82675C7.72725 8.82675 7.32233 8.83973 6.91175 8.8654L6.89914 8.86639C6.89837 8.86646 6.82323 8.87344 6.69703 8.87344C6.12541 8.87344 4.70608 8.73888 3.87461 7.49167L2.74142 5.79187L3.21464 7.7792C3.23102 7.84798 3.62741 9.482 4.65778 11.1393C6.05052 13.3796 7.93532 14.5637 10.1083 14.5637C10.1084 14.5637 10.1084 14.5637 10.1084 14.5637C10.7751 14.5637 11.4718 14.4531 12.1947 14.2333C12.6569 14.4271 14.4962 15.3061 14.9062 17.1544V19.8177C14.5559 19.2422 14.0965 18.7237 13.5374 18.2779ZM29.1286 6.20431C28.9614 8.57728 28.3375 11.9002 26.3157 14.2552C24.5851 16.271 22.0844 17.2932 18.8832 17.2933C18.8544 17.2932 18.7355 17.2927 18.7355 17.2927L18.6769 17.3128C18.644 17.3241 17.8601 17.5971 17.0065 18.2779C16.4473 18.7237 15.9879 19.2423 15.6376 19.8178V17.1547C16.0476 15.3061 17.887 14.4272 18.3492 14.2333C19.0721 14.4531 19.7688 14.5638 20.4356 14.5638C22.6086 14.5638 24.4933 13.3797 25.8861 11.1394C26.9165 9.48204 27.3129 7.84798 27.3293 7.7792L27.8025 5.7919L26.6693 7.49167C25.8379 8.7388 24.4186 8.87344 23.8469 8.87344C23.7209 8.87344 23.6457 8.86653 23.6457 8.86653L23.6321 8.8654C23.2216 8.83976 22.8167 8.82675 22.4287 8.82675C19.8637 8.82675 17.8304 9.37434 16.3851 10.4543C16.0802 10.6821 15.8345 10.9113 15.6376 11.1249V8.69485C15.9639 8.19281 17.9017 5.47194 21.5391 5.47194C21.9708 5.47194 22.4175 5.51045 22.8669 5.5864L22.8815 5.58855C22.8945 5.5902 23.0145 5.60475 23.2193 5.60475C23.6958 5.60475 24.6709 5.52515 25.8475 4.99203C27.0402 4.45156 28.131 3.59292 29.0991 2.43421C29.171 3.27398 29.239 4.63904 29.1286 6.20431Z" fill="white"/>
<path d="M29.7252 1.4406L29.5897 0.555557L29.0668 1.28241C28.0416 2.7077 26.8569 3.73166 25.5457 4.32588C24.4944 4.80228 23.6369 4.87344 23.2193 4.87344C23.0839 4.87344 22.9993 4.86572 22.9789 4.86364C22.4927 4.78202 22.0084 4.74063 21.5391 4.74063C19.237 4.74063 17.5711 5.73449 16.5789 6.56823C15.9703 7.07974 15.5371 7.59015 15.2719 7.94309C15.0068 7.59015 14.5737 7.07974 13.965 6.56823C12.9729 5.73449 11.3071 4.74063 9.00484 4.74063C8.53568 4.74063 8.05141 4.78199 7.56536 4.8636C7.54313 4.86587 7.45888 4.87348 7.32467 4.87348C6.90715 4.87348 6.04968 4.80235 4.99833 4.32595C3.68709 3.73173 2.50238 2.70777 1.47718 1.28248L0.954372 0.55563L0.818853 1.44067C0.805652 1.52697 0.497461 3.58473 0.685784 6.25598C0.796729 7.8293 1.0587 9.28633 1.46449 10.5866C1.97607 12.2259 2.71926 13.6206 3.67338 14.7319C5.54929 16.9169 8.23663 18.0247 11.6607 18.0247C11.6682 18.0247 11.6756 18.0247 11.683 18.0247C12.0708 18.1768 14.4564 19.2156 14.9115 21.8889L15.2718 21.8584L15.6324 21.8889C15.8375 20.6844 16.4465 19.6673 17.4424 18.8658C18.0798 18.3529 18.6828 18.0947 18.8611 18.0247C18.8685 18.0247 18.8759 18.0247 18.8832 18.0247C22.3074 18.0246 24.9947 16.9167 26.8707 14.7317C27.8248 13.6203 28.5679 12.2257 29.0795 10.5863C29.4852 9.28614 29.7473 7.82915 29.8582 6.25584C30.0465 3.58458 29.7384 1.52686 29.7252 1.4406ZM15.7474 12.1772C16.1755 11.4753 17.7718 9.5581 22.4287 9.5581C22.7998 9.5581 23.1876 9.57053 23.5812 9.59503C23.6097 9.59752 23.7041 9.60483 23.8469 9.60483C24.3192 9.60483 25.2726 9.52668 26.1565 8.98198C25.9419 9.51319 25.6458 10.1434 25.2553 10.769C23.9863 12.8018 22.3647 13.8324 20.4356 13.8324C19.0297 13.8324 17.4537 13.2758 15.7474 12.1772ZM17.4 13.8882C16.8664 14.1932 16.1717 14.6908 15.6376 15.4253V12.9718C16.2388 13.3413 16.8268 13.6469 17.4 13.8882ZM10.1084 13.8324C8.17926 13.8324 6.55767 12.8017 5.28867 10.769C4.89817 10.1435 4.60212 9.51319 4.38743 8.98198C5.27138 9.52676 6.2248 9.6049 6.69707 9.60483C6.83986 9.60483 6.93413 9.59755 6.96273 9.59503C7.35634 9.57053 7.7441 9.5581 8.11526 9.5581C11.0713 9.5581 12.7696 10.3451 13.6738 11.0052C14.2888 11.4542 14.6288 11.9068 14.7952 12.1779C13.0893 13.2761 11.5138 13.8324 10.1084 13.8324ZM14.9063 12.9719V15.4254C14.3722 14.6909 13.6775 14.1932 13.1439 13.8883C13.7172 13.6469 14.3051 13.3413 14.9063 12.9719ZM13.5374 18.2779C12.6838 17.5971 11.9 17.3241 11.867 17.3128L11.8084 17.2927C11.8084 17.2927 11.6894 17.2933 11.6607 17.2933C8.46061 17.2933 5.96049 16.2718 4.22994 14.2573C2.21043 11.9065 1.58534 8.58994 1.41655 6.22165C1.30465 4.65159 1.373 3.2783 1.44503 2.43447C2.41308 3.59307 3.50385 4.4516 4.69646 4.99203C5.87302 5.52518 6.84813 5.60479 7.32467 5.60475C7.52949 5.60475 7.64943 5.5902 7.66245 5.58855L7.67711 5.5864C8.12641 5.51045 8.57312 5.47194 9.00484 5.47194C10.6669 5.47194 12.1704 6.02327 13.4736 7.11064C14.2809 7.78425 14.7587 8.46762 14.9063 8.69488V11.1249C14.7094 10.9113 14.4637 10.6821 14.1589 10.4543C12.7136 9.37434 10.6802 8.82675 8.11526 8.82675C7.72725 8.82675 7.32233 8.83973 6.91175 8.8654L6.89914 8.86639C6.89837 8.86646 6.82323 8.87344 6.69703 8.87344C6.12541 8.87344 4.70608 8.73888 3.87461 7.49167L2.74142 5.79187L3.21464 7.7792C3.23102 7.84798 3.62741 9.482 4.65778 11.1393C6.05052 13.3796 7.93532 14.5637 10.1083 14.5637C10.1084 14.5637 10.1084 14.5637 10.1084 14.5637C10.7751 14.5637 11.4718 14.4531 12.1947 14.2333C12.6569 14.4271 14.4962 15.3061 14.9062 17.1544V19.8177C14.5559 19.2422 14.0965 18.7237 13.5374 18.2779ZM29.1286 6.20431C28.9614 8.57728 28.3375 11.9002 26.3157 14.2552C24.5851 16.271 22.0844 17.2932 18.8832 17.2933C18.8544 17.2932 18.7355 17.2927 18.7355 17.2927L18.6769 17.3128C18.644 17.3241 17.8601 17.5971 17.0065 18.2779C16.4473 18.7237 15.9879 19.2423 15.6376 19.8178V17.1547C16.0476 15.3061 17.887 14.4272 18.3492 14.2333C19.0721 14.4531 19.7688 14.5638 20.4356 14.5638C22.6086 14.5638 24.4933 13.3797 25.8861 11.1394C26.9165 9.48204 27.3129 7.84798 27.3293 7.7792L27.8025 5.7919L26.6693 7.49167C25.8379 8.7388 24.4186 8.87344 23.8469 8.87344C23.7209 8.87344 23.6457 8.86653 23.6457 8.86653L23.6321 8.8654C23.2216 8.83976 22.8167 8.82675 22.4287 8.82675C19.8637 8.82675 17.8304 9.37434 16.3851 10.4543C16.0802 10.6821 15.8345 10.9113 15.6376 11.1249V8.69485C15.9639 8.19281 17.9017 5.47194 21.5391 5.47194C21.9708 5.47194 22.4175 5.51045 22.8669 5.5864L22.8815 5.58855C22.8945 5.5902 23.0145 5.60475 23.2193 5.60475C23.6958 5.60475 24.6709 5.52515 25.8475 4.99203C27.0402 4.45156 28.131 3.59292 29.0991 2.43421C29.171 3.27398 29.239 4.63904 29.1286 6.20431Z" stroke="white" stroke-width="0.4" mask="url(#path-3-outside-1)"/>
</svg>
