<svg width="34" height="34" viewBox="0 0 34 34" fill="none" xmlns="http://www.w3.org/2000/svg">
<path d="M29.0052 4.97931C26.629 2.60178 23.6016 0.982657 20.3057 0.326682C17.0098 -0.329293 13.5935 0.00734424 10.4888 1.29402C7.3841 2.5807 4.73048 4.75963 2.86349 7.55528C0.996502 10.3509 0 13.6377 0 17C0 20.3623 0.996502 23.6491 2.86349 26.4447C4.73048 29.2404 7.3841 31.4193 10.4888 32.706C13.5935 33.9927 17.0098 34.3293 20.3057 33.6733C23.6016 33.0173 26.629 31.3982 29.0052 29.0207C30.5882 27.4451 31.8444 25.572 32.7016 23.5091C33.5587 21.4461 34 19.2341 34 17C34 14.7659 33.5587 12.5539 32.7016 10.4909C31.8444 8.42802 30.5882 6.55493 29.0052 4.97931ZM19.2559 26.0321H14.7228V14.8121H19.2559V26.0321ZM16.9893 12.9217C16.4979 12.9217 16.0175 12.7759 15.6089 12.5026C15.2003 12.2294 14.882 11.841 14.694 11.3866C14.5061 10.9323 14.4571 10.4324 14.5533 9.95017C14.6494 9.46796 14.8863 9.02511 15.2341 8.67766C15.5818 8.3302 16.0247 8.09376 16.5068 7.99825C16.9889 7.90273 17.4885 7.95244 17.9423 8.14107C18.3961 8.32971 18.7839 8.6488 19.0564 9.05796C19.329 9.46713 19.4741 9.94799 19.4734 10.4397C19.4734 10.7659 19.4091 11.089 19.2842 11.3903C19.1594 11.6917 18.9763 11.9654 18.7456 12.1959C18.5149 12.4265 18.2411 12.6092 17.9397 12.7337C17.6383 12.8583 17.3154 12.9221 16.9893 12.9217Z" fill="white"/>
</svg>
