<?xml version="1.0" encoding="utf-8"?>
<!-- Generator: Adobe Illustrator 24.0.2, SVG Export Plug-In . SVG Version: 6.00 Build 0)  -->
<svg version="1.1" id="Слой_1" xmlns="http://www.w3.org/2000/svg" xmlns:xlink="http://www.w3.org/1999/xlink" x="0px" y="0px"
	 viewBox="0 0 155 30" style="enable-background:new 0 0 155 30;" xml:space="preserve">
<style type="text/css">
	.st0{fill:#FFFFFF;}
</style>
<g>
	<path class="st0" d="M17.09,17.18c0,2.23-1.02,3.96-3.05,5.21C12.32,23.46,10.28,24,7.94,24c-2.39,0-4.94-0.58-7.64-1.76
		l-0.39,0.21h-0.32l0.14-4.77c0.1-0.05,0.2-0.07,0.32-0.07c0.14,0,0.25,0.05,0.32,0.14c0.29,1.67,1.21,3,2.76,3.98
		c1.41,0.89,3.01,1.33,4.8,1.33c1.63,0,3.02-0.36,4.19-1.08c1.36-0.86,2.04-2.05,2.04-3.58c0-2.29-2.02-4.1-6.06-5.41
		C2.82,11.27,0.16,9,0.16,6.18c0-2.01,0.92-3.55,2.76-4.63c1.53-0.91,3.36-1.36,5.49-1.36c2.25,0,4.48,0.5,6.7,1.51l0.36-0.18h0.32
		L15.61,5.5c-0.07,0.1-0.16,0.16-0.25,0.18c-0.07,0-0.16-0.06-0.25-0.18c-0.41-1.42-1.35-2.54-2.83-3.36
		c-1.31-0.75-2.76-1.12-4.34-1.12c-1.36,0-2.5,0.32-3.41,0.97c-1,0.72-1.51,1.74-1.51,3.05c0,2.13,2.27,3.91,6.81,5.35
		C14.67,11.9,17.09,14.16,17.09,17.18z"/>
	<path class="st0" d="M22.94,22.04v4.11c0,0.93,0.11,1.61,0.32,2.04c0.29,0.6,0.85,0.96,1.68,1.08l0.24,0.23l-0.12,0.2h-6.04
		l-0.12-0.2l0.15-0.23c0.76-0.12,1.28-0.49,1.57-1.11c0.19-0.43,0.29-1.1,0.29-2.01V13.71c0-1.24-0.34-1.92-1.02-2.04l-0.49-0.09
		l-0.12-0.29l0.09-0.12l3.23-1.13h0.26v3.05c1.41-2.11,3.2-3.17,5.35-3.17c1.72,0,3.16,0.65,4.3,1.96c1.14,1.31,1.71,2.83,1.71,4.57
		c0,1.97-0.68,3.67-2.05,5.09c-1.37,1.42-3.04,2.13-5.02,2.13C25.45,23.67,24.05,23.13,22.94,22.04z M22.94,18.74
		c0.17,1.2,0.67,2.18,1.49,2.96c0.82,0.77,1.82,1.16,3,1.16c1.48,0,2.61-0.61,3.41-1.83c0.68-1.02,1.02-2.31,1.02-3.86
		c0-1.66-0.36-3.05-1.08-4.17c-0.84-1.31-2.04-1.97-3.61-1.97c-1.17,0-2.13,0.42-2.89,1.25c-0.66,0.72-1.11,1.68-1.34,2.9V18.74z"/>
	<path class="st0" d="M40.14,19.89c0,0.99,0.14,1.7,0.41,2.12c0.33,0.56,0.96,0.89,1.88,0.99h0.12l0.18,0.23l-0.15,0.2h-6.31
		l-0.12-0.2L36.28,23c0.77-0.12,1.3-0.48,1.57-1.1c0.17-0.41,0.26-1.08,0.26-2v-6.34c0-1.24-0.36-1.92-1.07-2.03l-0.52-0.09
		l-0.12-0.29l0.09-0.12l3.31-1.13h0.29v3.66c1.24-2.44,2.62-3.66,4.16-3.66l1.39,0.46l-0.81,2.27l-0.78-0.26
		c-0.23-0.22-0.47-0.33-0.7-0.33c-0.24-0.07-0.46-0.11-0.67-0.11c-0.67,0-1.18,0.36-1.55,1.08c-0.49,0.93-0.81,2.04-0.97,3.34V19.89
		z"/>
	<path class="st0" d="M50.63,19.89c0,0.87,0.09,1.53,0.26,1.98c0.25,0.64,0.75,1.02,1.48,1.13l0.17,0.23l-0.12,0.2h-5.75l-0.12-0.2
		L46.71,23c0.79-0.12,1.33-0.48,1.6-1.1c0.19-0.43,0.29-1.09,0.29-2V13.7c0-0.62-0.05-1.06-0.15-1.31
		c-0.16-0.41-0.49-0.65-1.02-0.73l-0.52-0.09l-0.12-0.29l0.09-0.12l3.52-1.13h0.23V19.89z M48.19,5.48c0-0.35,0.13-0.64,0.39-0.89
		c0.26-0.24,0.57-0.36,0.92-0.36c0.35,0,0.65,0.12,0.92,0.35c0.26,0.23,0.39,0.52,0.39,0.87c0,0.35-0.13,0.64-0.39,0.89
		C50.15,6.58,49.85,6.7,49.5,6.7c-0.35,0-0.65-0.12-0.92-0.35C48.32,6.12,48.19,5.83,48.19,5.48z"/>
	<path class="st0" d="M67.75,19.89c-0.04,1.88,0.5,2.91,1.63,3.11l0.2,0.23l-0.12,0.2H63.8l-0.12-0.2L63.8,23
		c0.76-0.12,1.27-0.48,1.54-1.1c0.15-0.37,0.24-1.04,0.26-2l0.12-4.68c0.02-1.2-0.2-2.19-0.64-2.96c-0.55-0.93-1.39-1.39-2.52-1.39
		c-1.07,0-2.07,0.38-2.99,1.15c-0.92,0.77-1.47,1.67-1.67,2.72v5.17c0,1.88,0.51,2.91,1.54,3.11l0.21,0.23l-0.12,0.2h-5.4L54,23.23
		L54.12,23c0.74-0.12,1.23-0.49,1.48-1.13c0.17-0.43,0.26-1.08,0.26-1.98V13.7c0-1.24-0.33-1.92-0.99-2.03l-0.49-0.09l-0.12-0.29
		l0.09-0.12l3.2-1.13h0.26v2.91c0.62-0.87,1.43-1.59,2.44-2.16c1.01-0.57,2.01-0.86,3.02-0.86c1.49,0,2.64,0.46,3.46,1.37
		c0.76,0.87,1.12,2.06,1.1,3.57L67.75,19.89z"/>
	<path class="st0" d="M71.79,14.69c0-1.41,0.63-2.59,1.89-3.52c1.14-0.85,2.45-1.28,3.92-1.28c1.38,0,2.51,0.23,3.4,0.7
		c1.65-0.76,3.12-1.13,4.42-1.13c0.13,0,0.2,0.14,0.2,0.41c0,0.46-0.05,0.85-0.15,1.16l-0.17,0.55c-0.31,0-0.81-0.11-1.5-0.33
		c-0.69-0.22-1.2-0.33-1.53-0.33c-0.19,0-0.41-0.02-0.64-0.06h-0.15c0.12,0.06,0.27,0.16,0.46,0.32c1.14,0.85,1.71,2,1.71,3.43
		c0,1.49-0.65,2.67-1.94,3.55c-1.12,0.77-2.45,1.16-4,1.16c-0.58,0-1.07-0.05-1.48-0.15c-1.26,0.39-1.88,0.77-1.88,1.13
		c0,0.74,1.53,1.13,4.58,1.19c1.83,0.04,3.21,0.2,4.12,0.49c1.58,0.5,2.38,1.45,2.38,2.85c0,1.69-1.01,2.97-3.02,3.86
		c-1.55,0.68-3.29,1.02-5.23,1.02c-1.49,0-2.79-0.21-3.89-0.64c-1.55-0.6-2.32-1.54-2.32-2.82c0-1.2,1.3-2.34,3.89-3.43
		c-0.23-0.04-0.5-0.11-0.81-0.2c-1.14-0.33-1.71-0.86-1.71-1.6c0-0.54,0.4-1.02,1.19-1.42c0.56-0.29,1.11-0.52,1.66-0.7
		C72.92,18.03,71.79,16.63,71.79,14.69z M76.46,23.06c-1.07,0.29-1.83,0.58-2.3,0.87c-0.81,0.5-1.22,1.15-1.22,1.95
		c0,1.05,0.64,1.85,1.92,2.41c1.01,0.45,2.09,0.67,3.25,0.67c1.26,0,2.43-0.25,3.52-0.75c1.36-0.64,2.03-1.52,2.03-2.64
		c0-1.53-1.85-2.33-5.55-2.41C77.35,23.13,76.79,23.1,76.46,23.06z M77.71,10.45c-1.2,0-2.12,0.35-2.76,1.06
		C74.31,12.21,74,13.18,74,14.4c0,1.28,0.32,2.31,0.96,3.08c0.7,0.85,1.67,1.28,2.91,1.28c2.4,0,3.6-1.36,3.6-4.07
		c0-1.26-0.32-2.28-0.96-3.07C79.86,10.84,78.94,10.45,77.71,10.45z"/>
	<path class="st0" d="M97.3,19.62c0,1.34-0.58,2.4-1.74,3.17c-1.01,0.68-2.22,1.02-3.63,1.02c-1.55,0-2.99-0.31-4.33-0.93
		c-0.16,0-0.25,0.07-0.29,0.2h-0.23l0.2-2.96c0.08-0.1,0.14-0.15,0.2-0.15c0.14,0.02,0.23,0.08,0.29,0.17
		c0.23,0.94,0.75,1.68,1.57,2.22c0.76,0.52,1.64,0.78,2.64,0.78c0.89,0,1.66-0.2,2.3-0.61c0.74-0.46,1.1-1.12,1.1-1.97
		c0-0.81-0.39-1.5-1.16-2.06c-0.62-0.44-1.38-0.75-2.3-0.93c-2.98-0.56-4.47-1.85-4.47-3.86c0-1.29,0.57-2.28,1.71-2.96
		c0.93-0.56,2.09-0.84,3.49-0.84c1.43,0,2.72,0.27,3.87,0.81l-0.35,2.62c-0.08,0.04-0.16,0.06-0.23,0.06
		c-0.08-0.02-0.15-0.06-0.2-0.12c-0.14-0.86-0.56-1.54-1.28-2.03c-0.64-0.45-1.4-0.68-2.3-0.68c-0.75,0-1.39,0.19-1.92,0.55
		c-0.6,0.41-0.9,0.97-0.9,1.69c0,1.46,1.2,2.45,3.6,2.97c1.3,0.29,2.29,0.67,2.96,1.14C96.83,17.6,97.3,18.49,97.3,19.62z"/>
	<path class="st0" d="M103.37,19.89c0,0.87,0.09,1.53,0.26,1.98c0.25,0.64,0.75,1.02,1.48,1.13l0.17,0.23l-0.12,0.2h-5.75l-0.12-0.2
		L99.45,23c0.79-0.12,1.33-0.48,1.6-1.1c0.19-0.43,0.29-1.09,0.29-2V13.7c0-0.62-0.05-1.06-0.15-1.31
		c-0.16-0.41-0.49-0.65-1.02-0.73l-0.52-0.09l-0.12-0.29l0.09-0.12l3.52-1.13h0.23V19.89z M100.93,5.48c0-0.35,0.13-0.64,0.39-0.89
		c0.26-0.24,0.57-0.36,0.92-0.36c0.35,0,0.65,0.12,0.92,0.35c0.26,0.23,0.39,0.52,0.39,0.87c0,0.35-0.13,0.64-0.39,0.89
		c-0.26,0.24-0.57,0.36-0.92,0.36c-0.35,0-0.65-0.12-0.92-0.35C101.06,6.12,100.93,5.83,100.93,5.48z"/>
	<path class="st0" d="M121.94,16.87c0,2.02-0.71,3.67-2.14,4.97c-1.42,1.3-3.15,1.95-5.19,1.95c-2.03,0-3.75-0.64-5.14-1.92
		c-1.45-1.32-2.18-2.98-2.18-5c0-2.01,0.73-3.68,2.18-5c1.39-1.3,3.11-1.95,5.14-1.95c2.03,0,3.76,0.65,5.19,1.96
		C121.23,13.19,121.94,14.85,121.94,16.87z M119.5,16.87c-0.02-1.65-0.45-3.07-1.29-4.26c-0.94-1.34-2.2-2.01-3.8-2.01
		c-1.62,0-2.83,0.67-3.65,2.01c-0.7,1.13-1.04,2.55-1.02,4.26c0.02,1.67,0.45,3.09,1.29,4.26c0.94,1.32,2.2,1.98,3.8,1.98
		c1.62,0,2.83-0.67,3.65-2.01C119.18,19.97,119.52,18.56,119.5,16.87z"/>
	<path class="st0" d="M137.57,10.13v9.76c0,1.51,0.25,2.38,0.76,2.62l0.87,0.03c0.02,0.06,0.03,0.12,0.03,0.17
		c-0.02,0.1-0.07,0.17-0.15,0.23l-2.67,0.64l-0.49-0.44l-0.41-2.21c-1.61,1.9-3.44,2.85-5.49,2.85c-1.32,0-2.37-0.38-3.17-1.13
		c-0.8-0.75-1.19-1.79-1.19-3.11v-6.31c0-0.48-0.04-0.82-0.12-1.02c-0.12-0.31-0.37-0.52-0.76-0.64l-0.41-0.12l-0.35-0.26l0.15-0.2
		l3.63-0.87v8.8c0,1.16,0.3,2.08,0.9,2.76c0.6,0.68,1.48,1.02,2.63,1.02c1.11,0,2.06-0.45,2.86-1.37c0.74-0.83,1.19-1.82,1.34-2.96
		v-5.14c0-0.5-0.06-0.88-0.19-1.12c-0.13-0.24-0.42-0.42-0.87-0.54L134,11.46l-0.44-0.26l0.17-0.2L137.57,10.13z"/>
	<path class="st0" d="M153.29,11.29l-1.51,1.34l-3.23,3.52l4.13,5.03c0.16,0.17,0.5,0.51,1.05,1.02l0.52,0.41l0.78,0.26l0.2,0.29
		l-0.12,0.29h-5.35l-0.17-0.2l0.12-0.2l0.73-0.2l0.26-0.29l0.03-0.14l-0.06-0.41l-0.35-0.49l-2.67-3.47l-5.83,7.09l-0.41,0.61
		l-0.12,0.61l0.03,0.29l0.38,0.49l1.61,0.2c0.14,0.1,0.2,0.17,0.2,0.23l-0.12,0.23h-7.4l-0.17-0.26l0.12-0.26l2.37-0.49l1.05-0.84
		l7.56-8.85l-3.54-4.59l-1.13-1.1l-1.31-0.61l-0.2-0.26l0.12-0.29l2.59,0.09l2.59-0.09l0.17,0.26l-0.12,0.23l-0.49,0.23l-0.26,0.32
		l-0.03,0.2l0.09,0.46l0.41,0.61l2.38,3.08l2.12-2.5l0.64-0.84l0.09-0.61l-0.03-0.23l-0.87-0.67l-0.2-0.26l0.12-0.29l2.38,0.09
		l2.38-0.09l0.17,0.26l-0.12,0.23L153.29,11.29z"/>
</g>
</svg>
