<svg width="24" height="28" viewBox="0 0 24 28" fill="none" xmlns="http://www.w3.org/2000/svg">
<path d="M12.2417 14.8672C13.613 14.8672 14.9536 14.4606 16.0938 13.6987C17.234 12.9368 18.1227 11.8539 18.6475 10.587C19.1723 9.32003 19.3096 7.92591 19.0421 6.58093C18.7745 5.23594 18.1142 4.00049 17.1445 3.03081C16.1748 2.06113 14.9394 1.40076 13.5944 1.13323C12.2494 0.865696 10.8553 1.003 9.58833 1.52779C8.32138 2.05258 7.2385 2.94128 6.47663 4.0815C5.71475 5.22173 5.30811 6.56227 5.30811 7.9336C5.31023 9.77186 6.04142 11.5342 7.34126 12.8341C8.6411 14.1339 10.4035 14.8651 12.2417 14.8672ZM12.2417 2.60593C13.2954 2.60593 14.3255 2.9184 15.2016 3.50381C16.0777 4.08922 16.7606 4.92129 17.1638 5.89479C17.5671 6.8683 17.6726 7.93951 17.467 8.97298C17.2614 10.0064 16.754 10.9558 16.0089 11.7008C15.2639 12.4459 14.3146 12.9533 13.2811 13.1589C12.2476 13.3645 11.1764 13.259 10.2029 12.8557C9.22939 12.4525 8.39732 11.7696 7.81191 10.8935C7.2265 10.0174 6.91404 8.98732 6.91404 7.9336C6.9151 6.52094 7.47675 5.16645 8.47565 4.16755C9.47455 3.16864 10.829 2.607 12.2417 2.60593Z" fill="black" stroke="black"/>
<path d="M12.2415 16.5334C6.0386 16.5334 1 20.8694 1 26.197C1 26.41 1.0846 26.6142 1.23518 26.7648C1.38577 26.9154 1.59001 27 1.80296 27C2.01592 27 2.22016 26.9154 2.37075 26.7648C2.52133 26.6142 2.60593 26.41 2.60593 26.197C2.60593 21.7526 6.93391 18.1393 12.2415 18.1393C17.5491 18.1393 21.8771 21.7526 21.8771 26.197C21.8771 26.41 21.9617 26.6142 22.1123 26.7648C22.2629 26.9154 22.4671 27 22.68 27C22.893 27 23.0972 26.9154 23.2478 26.7648C23.3984 26.6142 23.483 26.41 23.483 26.197C23.483 20.8694 18.4444 16.5334 12.2415 16.5334Z" fill="black" stroke="black"/>
</svg>