<svg width="16" height="16" viewBox="0 0 16 16" fill="none" xmlns="http://www.w3.org/2000/svg">
<path d="M12.3186 5.12613C11.8369 3.01813 10.8446 1.40814 9.47757 0.0147561C12.218 0.566525 14.4409 2.49113 15.3552 5.12613H12.3186ZM12.648 7.76113C12.648 8.67126 12.5247 9.86913 12.3186 10.3961H15.3552C15.6472 9.86913 15.81 8.68549 15.81 7.76113C15.81 7.2199 15.7504 6.70713 15.6456 6.18013H12.5226C12.5964 6.70713 12.648 7.22359 12.648 7.76113ZM12.0014 11.4501C11.458 13.0311 10.5953 14.3692 9.47757 15.5096C11.8306 15.0343 13.799 13.5581 14.8899 11.4501H12.0014ZM4.216 7.76113C4.216 8.67495 4.35197 9.86913 4.58016 10.3961H11.2272C11.458 9.86913 11.594 8.67495 11.594 7.76113C11.594 7.22201 11.5366 6.70713 11.4538 6.18013H4.35618C4.27344 6.70713 4.216 7.22201 4.216 7.76113ZM11.2277 5.12613C10.6718 3.01813 9.49812 1.30116 7.905 0C6.31188 1.30116 5.13825 3.01813 4.58016 5.12613H11.2277ZM4.93219 11.4501C5.56828 13.0311 6.59119 14.4514 7.905 15.5223C9.21618 14.4514 10.2396 13.0311 10.8757 11.4501H4.93219ZM3.49137 5.12613C3.97305 3.01813 4.96329 1.40814 6.33243 0.0147561C3.59203 0.566525 1.36915 2.49113 0.452693 5.12613H3.49137ZM0.920142 11.4501C2.00892 13.5581 3.97938 15.0343 6.33243 15.5096C5.21466 14.3692 4.35197 13.0311 3.80652 11.4501H0.920142ZM3.162 7.76113C3.162 7.22359 3.21365 6.70713 3.28743 6.18013H0.164424C0.059551 6.70713 0 7.2199 0 7.76113C0 8.68549 0.160735 9.86913 0.452693 10.3961H3.49137C3.28321 9.86913 3.162 8.67126 3.162 7.76113Z" fill="black" fill-opacity="0.2"/>
</svg>
